<svg width="40" height="41" viewBox="0 0 40 41" fill="none" xmlns="http://www.w3.org/2000/svg">
<path opacity="0.15" fill-rule="evenodd" clip-rule="evenodd" d="M11.2165 0.716613C10.6401 0.388536 10 0.865838 10 1.52911V6.66687C10 8.04758 8.88071 9.16687 7.5 9.16687C6.11929 9.16687 5 8.04758 5 6.66687V3.37997C5 2.5342 4.06199 2.14251 3.65949 2.88637C3.23883 3.6638 3 4.55401 3 5.50001V7.50001C3 10.0176 4.6915 12.1401 7 12.793V27.207C4.6915 27.86 3 29.9825 3 32.5V34.5C3 35.446 3.23883 36.3362 3.65949 37.1137C4.06199 37.8575 5 37.4658 5 36.6201V33.5C5 32.1193 6.11929 31 7.5 31C8.88071 31 10 32.1193 10 33.5L10 38.4709C10 39.1342 10.6401 39.6115 11.2165 39.2834C12.8789 38.3373 14 36.5496 14 34.5V32.5C14 29.9825 12.3085 27.86 10 27.207V12.793C12.3085 12.14 14 10.0176 14 7.50001V5.50001C14 3.45045 12.8789 1.66273 11.2165 0.716613ZM29 26.5V13.5L23 17V23L29 26.5ZM23 1.5V4H37L38.5 9H23V11.5H21V1.5H23ZM35.0571 35.5V38H37V28H35.0571V30.5H20L21.4571 35.5H35.0571Z" fill="#3761E9"></path>
<path fill-rule="evenodd" clip-rule="evenodd" d="M11 2.16639V6.66686C11 8.59985 9.433 10.1669 7.5 10.1669C5.567 10.1669 4 8.59985 4 6.66686V2.16639C2.78385 3.07994 2 4.5321 2 6.16686V7.16686C2 9.34233 3.38991 11.1957 5.33325 11.8826L6 12.1183V12.8254V27.3414V28.0486L5.33325 28.2842C3.38991 28.9711 2 30.8245 2 33V34C2 35.6347 2.78385 37.0869 4 38.0004L4 33.5C4 31.567 5.567 30 7.5 30C9.433 30 11 31.567 11 33.5L11 38.0004C12.2161 37.0869 13 35.6347 13 34L13 33C13 30.8245 11.6101 28.9711 9.66675 28.2842L9 28.0486V27.3414V12.8254V12.1183L9.66675 11.8826C11.6101 11.1957 13 9.34233 13 7.16686V6.16686C13 4.5321 12.2161 3.07994 11 2.16639ZM9.87157 0.288501C10.4229 -0.0690209 11.1666 -0.124472 11.8103 0.293904C13.7281 1.54036 15 3.7048 15 6.16686V7.16686C15 9.96054 13.3639 12.3699 11 13.4929V26.6739C13.3639 27.7969 15 30.2063 15 33L15 34C15 36.462 13.7281 38.6265 11.8103 39.8729C11.1666 40.2913 10.4229 40.2359 9.87157 39.8783C9.34061 39.534 9 38.9252 9 38.2445L9 33.5C9 32.6716 8.32843 32 7.5 32C6.67157 32 6 32.6716 6 33.5L6 38.2445C6 38.9252 5.65939 39.534 5.12843 39.8783C4.57712 40.2359 3.83344 40.2913 3.18971 39.8729C1.27187 38.6265 0 36.462 0 34V33C0 30.2063 1.63609 27.7969 4 26.6739V13.4929C1.63609 12.3699 0 9.96054 0 7.16686V6.16686C0 3.7048 1.27187 1.54036 3.18971 0.293904C3.83344 -0.124472 4.57712 -0.0690203 5.12843 0.288502C5.65939 0.632831 6 1.2416 6 1.92234V6.66686C6 7.49528 6.67157 8.16686 7.5 8.16686C8.32843 8.16686 9 7.49528 9 6.66686V1.92234C9 1.2416 9.3406 0.63283 9.87157 0.288501ZM18 2C18 0.895432 18.8954 1.67087e-06 20 1.67087e-06H22C23.1046 1.67087e-06 24 0.895432 24 2V3H26.5H30H33.5H36.323C37.1408 3 37.8762 3.4979 38.1799 4.25722L39.3799 7.25722C39.9054 8.57095 38.9379 10 37.523 10H35.5H32H28.5H24V11C24 12.1046 23.1046 13 22 13H20C18.8954 13 18 12.1046 18 11V2ZM22 2H20V11H22V9V8H23H27.023L25.823 5H23H22V4V2ZM27.977 5L29.177 8H30.523L29.323 5H27.977ZM31.477 5L32.677 8H34.023L32.823 5H31.477ZM34.977 5L36.177 8H37.523L36.323 5H34.977ZM38 40C39.1046 40 40 39.1046 40 38V29C40 27.8954 39.1046 27 38 27H36C34.8954 27 34 27.8954 34 29V30H29.5L26 30H22.5H20.477C19.0621 30 18.0946 31.4291 18.6201 32.7428L19.8201 35.7428C20.1238 36.5021 20.8592 37 21.677 37H24.5H28H31.5H34V38C34 39.1046 34.8954 40 36 40H38ZM38 38H36V36V35H35H32.177L30.977 32H35H36V31V29H38V38ZM28.823 32L30.023 35H28.677L27.477 32H28.823ZM25.323 32L26.523 35H25.177L23.977 32H25.323ZM21.823 32L23.023 35H21.677L20.477 32H21.823ZM28.4961 12.1362C28.8075 11.9546 29.1925 11.9546 29.5039 12.1362L35.5039 15.6362C35.8111 15.8154 36 16.1443 36 16.5V23C36 23.3557 35.8111 23.6846 35.5039 23.8638L29.5039 27.3638C29.1925 27.5454 28.8075 27.5454 28.4961 27.3638L22.4961 23.8638C22.1889 23.6846 22 23.3557 22 23V16.5C22 16.1443 22.1889 15.8154 22.4961 15.6362L28.4961 12.1362ZM24 17.0744V22.4256L29 25.3423L34 22.4256V17.0744L29 14.1577L24 17.0744ZM31.4741 17.6965L29.4741 16.6195C29.1781 16.4602 28.8219 16.4602 28.5259 16.6195L26.5259 17.6965C26.202 17.8709 26 18.209 26 18.5769V20.9231C26 21.291 26.202 21.6291 26.5259 21.8036L28.5259 22.8805C28.8219 23.0398 29.1781 23.0398 29.4741 22.8805L31.4741 21.8036C31.798 21.6291 32 21.291 32 20.9231V18.5769C32 18.209 31.798 17.8709 31.4741 17.6965ZM28 20.3258V19.1742L29 18.6358L30 19.1742V20.3258L29 20.8642L28 20.3258Z" fill="#3761E9"></path>
</svg>